G04 #@! TF.GenerationSoftware,KiCad,Pcbnew,(5.1.5-0-10_14)*
G04 #@! TF.CreationDate,2021-03-23T14:19:29+01:00*
G04 #@! TF.ProjectId,eByteAdapter,65427974-6541-4646-9170-7465722e6b69,rev?*
G04 #@! TF.SameCoordinates,Original*
G04 #@! TF.FileFunction,Copper,L2,Bot*
G04 #@! TF.FilePolarity,Positive*
%FSLAX46Y46*%
G04 Gerber Fmt 4.6, Leading zero omitted, Abs format (unit mm)*
G04 Created by KiCad (PCBNEW (5.1.5-0-10_14)) date 2021-03-23 14:19:29*
%MOMM*%
%LPD*%
G04 APERTURE LIST*
%ADD10O,1.350000X1.350000*%
%ADD11O,1.000000X1.000000*%
%ADD12C,0.800000*%
%ADD13C,0.250000*%
%ADD14C,0.254000*%
G04 APERTURE END LIST*
D10*
X28000000Y-37000000D03*
X30000000Y-37000000D03*
X32000000Y-37000000D03*
X34000000Y-37000000D03*
X36000000Y-37000000D03*
X38000000Y-37000000D03*
X40000000Y-37000000D03*
X42000000Y-37000000D03*
D11*
X28000000Y-35000000D03*
X29270000Y-35000000D03*
X30540000Y-35000000D03*
X31810000Y-35000000D03*
X33080000Y-35000000D03*
X34350000Y-35000000D03*
X35620000Y-35000000D03*
X36890000Y-35000000D03*
D12*
X27500000Y-20000000D03*
X27500000Y-22500000D03*
X27500000Y-27500000D03*
X27500000Y-30000000D03*
X32500000Y-30000000D03*
X37500000Y-30000000D03*
X42500000Y-30000000D03*
X42500000Y-27500000D03*
X42500000Y-22500000D03*
X32500000Y-25000000D03*
X37500000Y-25000000D03*
X38413000Y-35529700D03*
D13*
X27162600Y-34596100D02*
X27162600Y-35340700D01*
X27162600Y-35340700D02*
X27698200Y-35876300D01*
X27698200Y-35876300D02*
X28876300Y-35876300D01*
X28876300Y-35876300D02*
X30000000Y-37000000D01*
X27162600Y-34596100D02*
X27162600Y-33337400D01*
X35620000Y-35000000D02*
X36900000Y-36200000D01*
X36900000Y-36200000D02*
X38000000Y-37000000D01*
X32000000Y-37000000D02*
X32000000Y-35999700D01*
X33080000Y-35000000D02*
X32080300Y-35999700D01*
X32080300Y-35999700D02*
X32000000Y-35999700D01*
X38413000Y-35529700D02*
X40529700Y-35529700D01*
X40529700Y-35529700D02*
X42000000Y-37000000D01*
D14*
G36*
X32940001Y-19032419D02*
G01*
X32942756Y-19060394D01*
X32942731Y-19064005D01*
X32943630Y-19073177D01*
X32955870Y-19189634D01*
X32967900Y-19248240D01*
X32979107Y-19306992D01*
X32981771Y-19315814D01*
X33016398Y-19427676D01*
X33039578Y-19482819D01*
X33061986Y-19538282D01*
X33066312Y-19546418D01*
X33122007Y-19649425D01*
X33155443Y-19698995D01*
X33188215Y-19749077D01*
X33194040Y-19756218D01*
X33268682Y-19846444D01*
X33311116Y-19888582D01*
X33352978Y-19931331D01*
X33360078Y-19937204D01*
X33450824Y-20011215D01*
X33500620Y-20044299D01*
X33550008Y-20078116D01*
X33558114Y-20082498D01*
X33661507Y-20137474D01*
X33716799Y-20160263D01*
X33771795Y-20183835D01*
X33780598Y-20186559D01*
X33892700Y-20220404D01*
X33951365Y-20232020D01*
X34009889Y-20244460D01*
X34019054Y-20245423D01*
X34135595Y-20256850D01*
X34135598Y-20256850D01*
X34167581Y-20260000D01*
X37032419Y-20260000D01*
X37060403Y-20257244D01*
X37064005Y-20257269D01*
X37073177Y-20256370D01*
X37189634Y-20244130D01*
X37248240Y-20232100D01*
X37306992Y-20220893D01*
X37315814Y-20218229D01*
X37427676Y-20183602D01*
X37482819Y-20160422D01*
X37538282Y-20138014D01*
X37546418Y-20133688D01*
X37649425Y-20077993D01*
X37698995Y-20044557D01*
X37749077Y-20011785D01*
X37756218Y-20005960D01*
X37846444Y-19931318D01*
X37888582Y-19888884D01*
X37931331Y-19847022D01*
X37937204Y-19839922D01*
X38011215Y-19749176D01*
X38044299Y-19699380D01*
X38078116Y-19649992D01*
X38082498Y-19641886D01*
X38137474Y-19538493D01*
X38160263Y-19483201D01*
X38183835Y-19428205D01*
X38186559Y-19419402D01*
X38220404Y-19307300D01*
X38232020Y-19248635D01*
X38244460Y-19190111D01*
X38245423Y-19180946D01*
X38256850Y-19064405D01*
X38256850Y-19064402D01*
X38260000Y-19032419D01*
X38260000Y-18060000D01*
X42940001Y-18060000D01*
X42940000Y-36087379D01*
X42835077Y-35982456D01*
X42620518Y-35839093D01*
X42382113Y-35740342D01*
X42129024Y-35690000D01*
X41870976Y-35690000D01*
X41782417Y-35707615D01*
X41093504Y-35018703D01*
X41069701Y-34989699D01*
X40953976Y-34894726D01*
X40821947Y-34824154D01*
X40678686Y-34780697D01*
X40567033Y-34769700D01*
X40567022Y-34769700D01*
X40529700Y-34766024D01*
X40492378Y-34769700D01*
X39116711Y-34769700D01*
X39072774Y-34725763D01*
X38903256Y-34612495D01*
X38714898Y-34534474D01*
X38514939Y-34494700D01*
X38311061Y-34494700D01*
X38111102Y-34534474D01*
X37947263Y-34602339D01*
X37904210Y-34490471D01*
X37785318Y-34302399D01*
X37632020Y-34141135D01*
X37450206Y-34012877D01*
X37246864Y-33922554D01*
X37191874Y-33905881D01*
X37017000Y-34032046D01*
X37017000Y-34873000D01*
X37037000Y-34873000D01*
X37037000Y-35127000D01*
X37017000Y-35127000D01*
X37017000Y-35147000D01*
X36888006Y-35147000D01*
X36755000Y-35022307D01*
X36755000Y-34888212D01*
X36751974Y-34873000D01*
X36763000Y-34873000D01*
X36763000Y-34032046D01*
X36588126Y-33905881D01*
X36533136Y-33922554D01*
X36329794Y-34012877D01*
X36259658Y-34062353D01*
X36157624Y-33994176D01*
X35951067Y-33908617D01*
X35731788Y-33865000D01*
X35508212Y-33865000D01*
X35288933Y-33908617D01*
X35082376Y-33994176D01*
X34985000Y-34059241D01*
X34887624Y-33994176D01*
X34681067Y-33908617D01*
X34461788Y-33865000D01*
X34238212Y-33865000D01*
X34018933Y-33908617D01*
X33812376Y-33994176D01*
X33715000Y-34059241D01*
X33617624Y-33994176D01*
X33411067Y-33908617D01*
X33191788Y-33865000D01*
X32968212Y-33865000D01*
X32748933Y-33908617D01*
X32542376Y-33994176D01*
X32445000Y-34059241D01*
X32347624Y-33994176D01*
X32141067Y-33908617D01*
X31921788Y-33865000D01*
X31698212Y-33865000D01*
X31478933Y-33908617D01*
X31272376Y-33994176D01*
X31175000Y-34059241D01*
X31077624Y-33994176D01*
X30871067Y-33908617D01*
X30651788Y-33865000D01*
X30428212Y-33865000D01*
X30208933Y-33908617D01*
X30002376Y-33994176D01*
X29905000Y-34059241D01*
X29807624Y-33994176D01*
X29601067Y-33908617D01*
X29381788Y-33865000D01*
X29158212Y-33865000D01*
X28938933Y-33908617D01*
X28732376Y-33994176D01*
X28635000Y-34059241D01*
X28537624Y-33994176D01*
X28331067Y-33908617D01*
X28111788Y-33865000D01*
X27888212Y-33865000D01*
X27668933Y-33908617D01*
X27462376Y-33994176D01*
X27276480Y-34118388D01*
X27118388Y-34276480D01*
X27060000Y-34363864D01*
X27060000Y-18060000D01*
X32940000Y-18060000D01*
X32940001Y-19032419D01*
G37*
X32940001Y-19032419D02*
X32942756Y-19060394D01*
X32942731Y-19064005D01*
X32943630Y-19073177D01*
X32955870Y-19189634D01*
X32967900Y-19248240D01*
X32979107Y-19306992D01*
X32981771Y-19315814D01*
X33016398Y-19427676D01*
X33039578Y-19482819D01*
X33061986Y-19538282D01*
X33066312Y-19546418D01*
X33122007Y-19649425D01*
X33155443Y-19698995D01*
X33188215Y-19749077D01*
X33194040Y-19756218D01*
X33268682Y-19846444D01*
X33311116Y-19888582D01*
X33352978Y-19931331D01*
X33360078Y-19937204D01*
X33450824Y-20011215D01*
X33500620Y-20044299D01*
X33550008Y-20078116D01*
X33558114Y-20082498D01*
X33661507Y-20137474D01*
X33716799Y-20160263D01*
X33771795Y-20183835D01*
X33780598Y-20186559D01*
X33892700Y-20220404D01*
X33951365Y-20232020D01*
X34009889Y-20244460D01*
X34019054Y-20245423D01*
X34135595Y-20256850D01*
X34135598Y-20256850D01*
X34167581Y-20260000D01*
X37032419Y-20260000D01*
X37060403Y-20257244D01*
X37064005Y-20257269D01*
X37073177Y-20256370D01*
X37189634Y-20244130D01*
X37248240Y-20232100D01*
X37306992Y-20220893D01*
X37315814Y-20218229D01*
X37427676Y-20183602D01*
X37482819Y-20160422D01*
X37538282Y-20138014D01*
X37546418Y-20133688D01*
X37649425Y-20077993D01*
X37698995Y-20044557D01*
X37749077Y-20011785D01*
X37756218Y-20005960D01*
X37846444Y-19931318D01*
X37888582Y-19888884D01*
X37931331Y-19847022D01*
X37937204Y-19839922D01*
X38011215Y-19749176D01*
X38044299Y-19699380D01*
X38078116Y-19649992D01*
X38082498Y-19641886D01*
X38137474Y-19538493D01*
X38160263Y-19483201D01*
X38183835Y-19428205D01*
X38186559Y-19419402D01*
X38220404Y-19307300D01*
X38232020Y-19248635D01*
X38244460Y-19190111D01*
X38245423Y-19180946D01*
X38256850Y-19064405D01*
X38256850Y-19064402D01*
X38260000Y-19032419D01*
X38260000Y-18060000D01*
X42940001Y-18060000D01*
X42940000Y-36087379D01*
X42835077Y-35982456D01*
X42620518Y-35839093D01*
X42382113Y-35740342D01*
X42129024Y-35690000D01*
X41870976Y-35690000D01*
X41782417Y-35707615D01*
X41093504Y-35018703D01*
X41069701Y-34989699D01*
X40953976Y-34894726D01*
X40821947Y-34824154D01*
X40678686Y-34780697D01*
X40567033Y-34769700D01*
X40567022Y-34769700D01*
X40529700Y-34766024D01*
X40492378Y-34769700D01*
X39116711Y-34769700D01*
X39072774Y-34725763D01*
X38903256Y-34612495D01*
X38714898Y-34534474D01*
X38514939Y-34494700D01*
X38311061Y-34494700D01*
X38111102Y-34534474D01*
X37947263Y-34602339D01*
X37904210Y-34490471D01*
X37785318Y-34302399D01*
X37632020Y-34141135D01*
X37450206Y-34012877D01*
X37246864Y-33922554D01*
X37191874Y-33905881D01*
X37017000Y-34032046D01*
X37017000Y-34873000D01*
X37037000Y-34873000D01*
X37037000Y-35127000D01*
X37017000Y-35127000D01*
X37017000Y-35147000D01*
X36888006Y-35147000D01*
X36755000Y-35022307D01*
X36755000Y-34888212D01*
X36751974Y-34873000D01*
X36763000Y-34873000D01*
X36763000Y-34032046D01*
X36588126Y-33905881D01*
X36533136Y-33922554D01*
X36329794Y-34012877D01*
X36259658Y-34062353D01*
X36157624Y-33994176D01*
X35951067Y-33908617D01*
X35731788Y-33865000D01*
X35508212Y-33865000D01*
X35288933Y-33908617D01*
X35082376Y-33994176D01*
X34985000Y-34059241D01*
X34887624Y-33994176D01*
X34681067Y-33908617D01*
X34461788Y-33865000D01*
X34238212Y-33865000D01*
X34018933Y-33908617D01*
X33812376Y-33994176D01*
X33715000Y-34059241D01*
X33617624Y-33994176D01*
X33411067Y-33908617D01*
X33191788Y-33865000D01*
X32968212Y-33865000D01*
X32748933Y-33908617D01*
X32542376Y-33994176D01*
X32445000Y-34059241D01*
X32347624Y-33994176D01*
X32141067Y-33908617D01*
X31921788Y-33865000D01*
X31698212Y-33865000D01*
X31478933Y-33908617D01*
X31272376Y-33994176D01*
X31175000Y-34059241D01*
X31077624Y-33994176D01*
X30871067Y-33908617D01*
X30651788Y-33865000D01*
X30428212Y-33865000D01*
X30208933Y-33908617D01*
X30002376Y-33994176D01*
X29905000Y-34059241D01*
X29807624Y-33994176D01*
X29601067Y-33908617D01*
X29381788Y-33865000D01*
X29158212Y-33865000D01*
X28938933Y-33908617D01*
X28732376Y-33994176D01*
X28635000Y-34059241D01*
X28537624Y-33994176D01*
X28331067Y-33908617D01*
X28111788Y-33865000D01*
X27888212Y-33865000D01*
X27668933Y-33908617D01*
X27462376Y-33994176D01*
X27276480Y-34118388D01*
X27118388Y-34276480D01*
X27060000Y-34363864D01*
X27060000Y-18060000D01*
X32940000Y-18060000D01*
X32940001Y-19032419D01*
M02*
