M48
; DRILL file {KiCad (5.1.5-0-10_14)} date 2021 March 23, Tuesday 14:19:30
; FORMAT={-:-/ absolute / inch / decimal}
; #@! TF.CreationDate,2021-03-23T14:19:30+01:00
; #@! TF.GenerationSoftware,Kicad,Pcbnew,(5.1.5-0-10_14)
FMAT,2
INCH
T1C0.0157
T2C0.0256
T3C0.0315
%
G90
G05
T1
X1.0827Y-0.7874
X1.0827Y-0.8858
X1.0827Y-1.0827
X1.0827Y-1.1811
X1.2795Y-0.9843
X1.2795Y-1.1811
X1.4764Y-0.9843
X1.4764Y-1.1811
X1.5123Y-1.3988
X1.6732Y-0.8858
X1.6732Y-1.0827
X1.6732Y-1.1811
T2
X1.1024Y-1.378
X1.1524Y-1.378
X1.2024Y-1.378
X1.2524Y-1.378
X1.3024Y-1.378
X1.3524Y-1.378
X1.4024Y-1.378
X1.4524Y-1.378
T3
X1.1024Y-1.4567
X1.1811Y-1.4567
X1.2598Y-1.4567
X1.3386Y-1.4567
X1.4173Y-1.4567
X1.4961Y-1.4567
X1.5748Y-1.4567
X1.6535Y-1.4567
T0
M30
