G04 #@! TF.GenerationSoftware,KiCad,Pcbnew,(5.1.5-0-10_14)*
G04 #@! TF.CreationDate,2021-03-23T17:37:01+01:00*
G04 #@! TF.ProjectId,eByteAdapter,65427974-6541-4646-9170-7465722e6b69,rev?*
G04 #@! TF.SameCoordinates,Original*
G04 #@! TF.FileFunction,Legend,Top*
G04 #@! TF.FilePolarity,Positive*
%FSLAX46Y46*%
G04 Gerber Fmt 4.6, Leading zero omitted, Abs format (unit mm)*
G04 Created by KiCad (PCBNEW (5.1.5-0-10_14)) date 2021-03-23 17:37:01*
%MOMM*%
%LPD*%
G04 APERTURE LIST*
%ADD10C,0.120000*%
%ADD11C,0.150000*%
G04 APERTURE END LIST*
D10*
X38200000Y-17500000D02*
X39400000Y-17500000D01*
D11*
X31190476Y-26127380D02*
X31761904Y-26127380D01*
X31476190Y-27127380D02*
X31476190Y-26127380D01*
X32285714Y-26127380D02*
X32476190Y-26127380D01*
X32571428Y-26175000D01*
X32666666Y-26270238D01*
X32714285Y-26460714D01*
X32714285Y-26794047D01*
X32666666Y-26984523D01*
X32571428Y-27079761D01*
X32476190Y-27127380D01*
X32285714Y-27127380D01*
X32190476Y-27079761D01*
X32095238Y-26984523D01*
X32047619Y-26794047D01*
X32047619Y-26460714D01*
X32095238Y-26270238D01*
X32190476Y-26175000D01*
X32285714Y-26127380D01*
X33142857Y-27127380D02*
X33142857Y-26127380D01*
X33523809Y-26127380D01*
X33619047Y-26175000D01*
X33666666Y-26222619D01*
X33714285Y-26317857D01*
X33714285Y-26460714D01*
X33666666Y-26555952D01*
X33619047Y-26603571D01*
X33523809Y-26651190D01*
X33142857Y-26651190D01*
X31023809Y-28729761D02*
X31166666Y-28777380D01*
X31404761Y-28777380D01*
X31500000Y-28729761D01*
X31547619Y-28682142D01*
X31595238Y-28586904D01*
X31595238Y-28491666D01*
X31547619Y-28396428D01*
X31500000Y-28348809D01*
X31404761Y-28301190D01*
X31214285Y-28253571D01*
X31119047Y-28205952D01*
X31071428Y-28158333D01*
X31023809Y-28063095D01*
X31023809Y-27967857D01*
X31071428Y-27872619D01*
X31119047Y-27825000D01*
X31214285Y-27777380D01*
X31452380Y-27777380D01*
X31595238Y-27825000D01*
X32023809Y-28777380D02*
X32023809Y-27777380D01*
X32500000Y-28777380D02*
X32500000Y-27777380D01*
X32738095Y-27777380D01*
X32880952Y-27825000D01*
X32976190Y-27920238D01*
X33023809Y-28015476D01*
X33071428Y-28205952D01*
X33071428Y-28348809D01*
X33023809Y-28539285D01*
X32976190Y-28634523D01*
X32880952Y-28729761D01*
X32738095Y-28777380D01*
X32500000Y-28777380D01*
X33500000Y-28253571D02*
X33833333Y-28253571D01*
X33976190Y-28777380D02*
X33500000Y-28777380D01*
X33500000Y-27777380D01*
X33976190Y-27777380D01*
D10*
X26500000Y-36300000D02*
X26500000Y-17500000D01*
X39400000Y-36300000D02*
X26500000Y-36300000D01*
X39400000Y-17500000D02*
X39400000Y-36300000D01*
X26500000Y-17500000D02*
X32900000Y-17500000D01*
X38085000Y-36110000D02*
X38085000Y-35307530D01*
X38085000Y-34692470D02*
X38085000Y-33890000D01*
X27760000Y-36110000D02*
X38085000Y-36110000D01*
X27760000Y-33890000D02*
X38085000Y-33890000D01*
X27760000Y-36110000D02*
X27760000Y-35563471D01*
X27760000Y-34436529D02*
X27760000Y-33890000D01*
M02*
